<svg width="30" height="30" viewBox="0 0 30 30" fill="none" xmlns="http://www.w3.org/2000/svg">
<path d="M24.375 15.5494V13.125H22.5V15.9375C22.5001 16.1861 22.5989 16.4245 22.7747 16.6003L25.3125 19.1381V20.625H4.6875V19.1381L7.22531 16.6003C7.40114 16.4245 7.49995 16.1861 7.5 15.9375V12.1875C7.49739 10.8701 7.84247 9.57538 8.50039 8.43405C9.15832 7.29272 10.1058 6.34522 11.2471 5.68726C12.3884 5.02929 13.6831 4.68416 15.0005 4.68673C16.3179 4.6893 17.6113 5.03947 18.75 5.70187V3.60656C17.8576 3.21143 16.9084 2.95958 15.9375 2.86031V0.9375H14.0625V2.85937C11.7512 3.09462 9.60915 4.17855 8.05066 5.90155C6.49217 7.62454 5.62791 9.86422 5.625 12.1875V15.5494L3.08719 18.0872C2.91136 18.263 2.81255 18.5014 2.8125 18.75V21.5625C2.8125 21.8111 2.91127 22.0496 3.08709 22.2254C3.2629 22.4012 3.50136 22.5 3.75 22.5H10.3125V23.4375C10.3125 24.6807 10.8064 25.873 11.6854 26.7521C12.5645 27.6311 13.7568 28.125 15 28.125C16.2432 28.125 17.4355 27.6311 18.3146 26.7521C19.1936 25.873 19.6875 24.6807 19.6875 23.4375V22.5H26.25C26.4986 22.5 26.7371 22.4012 26.9129 22.2254C27.0887 22.0496 27.1875 21.8111 27.1875 21.5625V18.75C27.1874 18.5014 27.0886 18.263 26.9128 18.0872L24.375 15.5494ZM17.8125 23.4375C17.8125 24.1834 17.5162 24.8988 16.9887 25.4262C16.4613 25.9537 15.7459 26.25 15 26.25C14.2541 26.25 13.5387 25.9537 13.0113 25.4262C12.4838 24.8988 12.1875 24.1834 12.1875 23.4375V22.5H17.8125V23.4375Z" fill="white"/>
<path d="M24.375 11.25C26.4461 11.25 28.125 9.57107 28.125 7.5C28.125 5.42893 26.4461 3.75 24.375 3.75C22.3039 3.75 20.625 5.42893 20.625 7.5C20.625 9.57107 22.3039 11.25 24.375 11.25Z" fill="#FF9D9D"/>
</svg>
