<svg width="333" height="16" viewBox="0 0 333 16" fill="none" xmlns="http://www.w3.org/2000/svg">
<rect opacity="0.35" x="305.158" y="1.55398" width="23.8072" height="12.8921" rx="6.44603" stroke="white"/>
<rect x="306.643" y="3.03862" width="20.8381" height="9.9229" rx="4.96145" fill="white"/>
<path opacity="0.35" d="M330.457 6.01561C330.457 6.01561 332.442 6.41253 332.442 8.00019C332.442 9.58785 330.457 9.98477 330.457 9.98477V6.01561Z" fill="white"/>
<path fill-rule="evenodd" clip-rule="evenodd" d="M288.87 10.3153C290.148 10.3153 291.306 10.8336 292.144 11.6716L288.87 14.946L285.595 11.6716C286.433 10.8336 287.591 10.3153 288.87 10.3153ZM288.87 5.68467C291.427 5.68467 293.743 6.72128 295.419 8.39726L293.454 10.3619C292.281 9.18871 290.66 8.46308 288.87 8.46308C287.08 8.46308 285.459 9.18871 284.286 10.3619L282.321 8.39726C283.997 6.72128 286.312 5.68467 288.87 5.68467ZM288.526 1.05814L288.87 1.05398L289.29 1.06021L289.659 1.07601L289.976 1.09743L290.381 1.13524L290.717 1.1758L291.082 1.22923L291.46 1.29505L291.834 1.37103L292.16 1.44587L292.539 1.54388L292.928 1.65629L293.195 1.74061L293.487 1.83971L293.801 1.95469L294.149 2.09235L294.492 2.23882L294.81 2.38451L295.119 2.53579L295.424 2.69432L295.72 2.85767L296.004 3.02328L296.308 3.21136L296.608 3.40703L296.886 3.59903L297.139 3.78201L297.473 4.03782L297.72 4.23741L297.967 4.44711L298.245 4.69434L298.537 4.96915L298.694 5.12379L296.728 7.0875C294.717 5.07632 291.938 3.83239 288.87 3.83239C285.801 3.83239 283.023 5.07613 281.011 7.08704L279.046 5.12287L279.069 5.10065C279.151 5.01823 279.235 4.93686 279.32 4.85655C279.488 4.69791 279.659 4.5434 279.834 4.39318L280.028 4.23041L280.266 4.03805L280.478 3.87365L280.713 3.69965L280.951 3.53041L281.088 3.43597L281.471 3.1857L281.759 3.00939L282.019 2.85763L282.403 2.64783L282.71 2.4905L283.023 2.34046L283.315 2.20879L283.658 2.06472L284.005 1.92968L284.312 1.81881L284.709 1.68782L284.982 1.60527L285.339 1.50646L285.693 1.41887L286 1.35066L286.354 1.28107L286.712 1.22049L287.057 1.17114L287.415 1.12921L287.781 1.09597L288.185 1.07053L288.526 1.05814Z" fill="white"/>
<rect x="251.761" y="9.38918" width="3.70455" height="4.63068" rx="1.85227" fill="white"/>
<rect x="257.318" y="7.53694" width="3.70455" height="6.48296" rx="1.85227" fill="white"/>
<rect x="262.875" y="4.75852" width="3.70455" height="9.26137" rx="1.85227" fill="white"/>
<rect x="268.432" y="1.98011" width="3.70455" height="12.0398" rx="1.85227" fill="white"/>
<path d="M4.90514 0.997887C2.04076 0.997887 0 2.97604 0 5.68445V5.70294C0 8.23572 1.77537 10.1029 4.3103 10.1029C6.12227 10.1029 7.27535 9.16933 7.76037 8.11555H7.9434C7.9434 8.21723 7.93425 8.31891 7.93425 8.42059C7.83358 10.9719 6.9459 13.0424 4.85023 13.0424C3.68801 13.0424 2.87353 12.4324 2.52578 11.4987L2.49833 11.4063H0.173876L0.192179 11.508C0.613143 13.5509 2.42512 15.0021 4.85023 15.0021C8.17218 15.0021 10.1763 12.3399 10.1763 7.84748V7.82899C10.1763 3.02226 7.72377 0.997887 4.90514 0.997887ZM4.89599 8.27269C3.39516 8.27269 2.30615 7.16344 2.30615 5.61974V5.60126C2.30615 4.11302 3.46837 2.93907 4.92344 2.93907C6.38766 2.93907 7.53159 4.13151 7.53159 5.65672V5.67521C7.53159 7.18193 6.38766 8.27269 4.89599 8.27269Z" fill="white"/>
<path d="M14.3311 6.02647C15.173 6.02647 15.7861 5.37941 15.7861 4.56596C15.7861 3.74327 15.173 3.10545 14.3311 3.10545C13.4983 3.10545 12.876 3.74327 12.876 4.56596C12.876 5.37941 13.4983 6.02647 14.3311 6.02647ZM14.3311 12.8853C15.173 12.8853 15.7861 12.2475 15.7861 11.4248C15.7861 10.6021 15.173 9.96429 14.3311 9.96429C13.4983 9.96429 12.876 10.6021 12.876 11.4248C12.876 12.2475 13.4983 12.8853 14.3311 12.8853Z" fill="white"/>
<path d="M24.8918 14.6693H27.1521V12.1088H28.9275V10.1399H27.1521V1.33066H23.8119C22.0182 4.08529 20.1422 7.1542 18.4309 10.1584V12.1088H24.8918V14.6693ZM20.6272 10.1954V10.0567C21.9084 7.79202 23.4367 5.32395 24.7911 3.23487H24.9284V10.1954H20.6272Z" fill="white"/>
<path d="M34.4 14.6693H36.7611V1.33066H34.4092L30.9591 3.78024V6.02647L34.2445 3.67856H34.4V14.6693Z" fill="white"/>
</svg>
