<svg width="13" height="13" viewBox="0 0 13 13" fill="none" xmlns="http://www.w3.org/2000/svg">
<path d="M12.2618 12.1017L8.35552 8.19543C8.9617 7.41177 9.28961 6.45362 9.28961 5.44583C9.28961 4.23949 8.81881 3.10836 7.96745 2.25551C7.1161 1.40265 5.98196 0.93335 4.77713 0.93335C3.5723 0.93335 2.43816 1.40415 1.5868 2.25551C0.733946 3.10686 0.264648 4.23949 0.264648 5.44583C0.264648 6.65066 0.73545 7.7848 1.5868 8.63615C2.43816 9.48901 3.57079 9.95831 4.77713 9.95831C5.78492 9.95831 6.74156 9.6304 7.52523 9.02573L11.4315 12.9305C11.443 12.942 11.4566 12.9511 11.4716 12.9573C11.4865 12.9635 11.5026 12.9667 11.5188 12.9667C11.535 12.9667 11.551 12.9635 11.566 12.9573C11.581 12.9511 11.5946 12.942 11.606 12.9305L12.2618 12.2762C12.2733 12.2648 12.2824 12.2512 12.2886 12.2362C12.2948 12.2212 12.298 12.2052 12.298 12.189C12.298 12.1728 12.2948 12.1567 12.2886 12.1418C12.2824 12.1268 12.2733 12.1132 12.2618 12.1017V12.1017ZM7.15972 7.82842C6.52195 8.46468 5.67662 8.81515 4.77713 8.81515C3.87764 8.81515 3.0323 8.46468 2.39454 7.82842C1.75828 7.19066 1.40781 6.34532 1.40781 5.44583C1.40781 4.54634 1.75828 3.6995 2.39454 3.06324C3.0323 2.42698 3.87764 2.07651 4.77713 2.07651C5.67662 2.07651 6.52346 2.42548 7.15972 3.06324C7.79598 3.701 8.14645 4.54634 8.14645 5.44583C8.14645 6.34532 7.79598 7.19216 7.15972 7.82842Z" fill="#3778C4"/>
</svg>
