<svg width="43" height="36" viewBox="0 0 43 36" fill="none" xmlns="http://www.w3.org/2000/svg">
<path d="M39.3158 24.1561L38.1801 24.369C38.0077 24.1765 37.8184 23.9963 37.6167 23.8336C37.415 23.671 37.1978 23.5234 36.9741 23.3965L36.9415 22.2415C36.939 22.1542 36.9099 22.0697 36.8582 21.9993C36.8065 21.929 36.7346 21.876 36.6521 21.8476L36.6173 21.8351C35.9396 21.5992 35.2246 21.4881 34.507 21.5072L34.4699 21.5083C34.3827 21.5106 34.2983 21.5393 34.2278 21.5905C34.1572 21.6417 34.1038 21.7132 34.0746 21.7953L33.6918 22.8881C33.1817 22.9946 32.6972 23.1804 32.2509 23.4452L31.2312 22.894C31.1544 22.8525 31.0667 22.8353 30.9799 22.8448C30.8931 22.8543 30.8112 22.8901 30.7451 22.9472L30.7171 22.9712C30.1803 23.4359 29.7181 24.009 29.3778 24.6321L29.3602 24.6645C29.3184 24.7412 29.3008 24.8288 29.3099 24.9157C29.319 25.0026 29.3544 25.0846 29.4112 25.1509L30.1693 26.035C30.0091 26.5247 29.9297 27.0371 29.934 27.5522L28.94 28.1625C28.8658 28.2083 28.8072 28.2756 28.772 28.3555C28.7369 28.4354 28.7269 28.524 28.7433 28.6097L28.7501 28.6462C28.8844 29.3512 29.1445 30.0263 29.5177 30.6391L29.5373 30.6704C29.63 30.8228 29.8075 30.9021 29.9836 30.8698L31.1323 30.6536C31.3027 30.8444 31.4907 31.0219 31.6892 31.182C31.8898 31.3438 32.1031 31.4899 32.3237 31.6143L32.3575 32.7807C32.36 32.868 32.389 32.9524 32.4407 33.0228C32.4924 33.0932 32.5643 33.1461 32.6469 33.1746L32.6816 33.1871C33.3599 33.4216 34.0711 33.5343 34.792 33.515L34.8291 33.5138C34.9162 33.5115 35.0007 33.4829 35.0712 33.4316C35.1418 33.3804 35.1952 33.309 35.2244 33.2268L35.6102 32.1261C36.1175 32.0209 36.6003 31.8371 37.0431 31.5746L38.0678 32.1282C38.1446 32.1697 38.2322 32.1868 38.3191 32.1773C38.4059 32.1678 38.4878 32.1321 38.5539 32.0749L38.5819 32.0509C39.1235 31.5813 39.5771 31.0189 39.9212 30.3901L39.9388 30.3576C39.9806 30.2809 39.9982 30.1933 39.9891 30.1064C39.98 30.0195 39.9446 29.9375 39.8878 29.8712L39.133 28.9915C39.2962 28.4983 39.3762 27.9864 39.3721 27.4653L40.3589 26.8596C40.4332 26.8138 40.4918 26.7465 40.527 26.6666C40.5621 26.5868 40.5721 26.4981 40.5557 26.4125L40.5489 26.3759C40.4129 25.6656 40.1543 24.9962 39.7813 24.383L39.7617 24.3517C39.6684 24.2022 39.4919 24.1238 39.3158 24.1561ZM36.384 28.9081C35.5651 29.9236 34.0789 30.0835 33.0642 29.2652C32.0495 28.4469 31.8908 26.9606 32.7097 25.9451C33.5287 24.9296 35.0148 24.7697 36.0296 25.588C37.0443 26.4062 37.203 27.8925 36.384 28.9081Z" fill="black"/>
<path d="M29.883 26.6507C29.0963 24.7872 28.2049 23.5365 26.7718 22.1089C25.3431 20.6771 23.6506 19.5356 21.7878 18.7473C21.7711 18.7389 21.7544 18.7348 21.7378 18.7264C24.3361 16.8496 26.0252 13.7925 26.0252 10.3433C26.0252 4.62947 21.3958 0 15.6819 0C9.96807 0 5.33859 4.62947 5.33859 10.3433C5.33859 13.7925 7.02772 16.8496 9.62607 18.7306C9.60939 18.7389 9.5927 18.7431 9.57602 18.7514C7.70755 19.5397 6.03093 20.67 4.59204 22.113C3.16028 23.5418 2.01874 25.2343 1.23046 27.097C0.456054 28.9207 0.0383993 30.8758 0.000104292 32.8567C-0.00100889 32.9013 0.00679877 32.9455 0.0230674 32.987C0.0393361 33.0284 0.0637365 33.0662 0.0948308 33.0981C0.125925 33.13 0.163084 33.1553 0.204119 33.1726C0.245153 33.1899 0.289233 33.1987 0.33376 33.1987H2.83618C3.01969 33.1987 3.16566 33.0528 3.16983 32.8734C3.25325 29.6536 4.54616 26.6382 6.8317 24.3527C9.19649 21.9879 12.337 20.6866 15.6819 20.6866C19.0268 20.6866 22.1673 21.9879 24.5321 24.3527C26.8177 26.6382 28.1106 29.6536 28.194 32.8734C28.1982 33.0569 28.3441 33.1987 28.5277 33.1987H31.0301C31.0746 33.1987 31.1187 33.1899 31.1597 33.1726C31.2008 33.1553 31.2379 33.13 31.269 33.0981C31.3001 33.0662 31.3245 33.0284 31.3408 32.987C31.357 32.9455 31.3648 32.9013 31.3637 32.8567C31.3637 32.8567 31.3408 31.2676 31.3408 31.0174L31.1134 30.7589L29.5702 31.1551L28.9655 29.7788L28.4441 28.2565L29.8413 27.464L29.883 26.6507ZM15.6819 17.5169C13.7676 17.5169 11.9658 16.7704 10.6104 15.4149C9.25488 14.0594 8.50832 12.2577 8.50832 10.3433C8.50832 8.42898 9.25488 6.62723 10.6104 5.27176C11.9658 3.91628 13.7676 3.16973 15.6819 3.16973C17.5963 3.16973 19.398 3.91628 20.7535 5.27176C22.109 6.62723 22.8555 8.42898 22.8555 10.3433C22.8555 12.2577 22.109 14.0594 20.7535 15.4149C19.398 16.7704 17.5963 17.5169 15.6819 17.5169Z" fill="black"/>
</svg>
