<svg width="333" height="16" viewBox="0 0 333 16" fill="none" xmlns="http://www.w3.org/2000/svg">
<rect opacity="0.35" x="305.158" y="1.55396" width="23.8072" height="12.8921" rx="6.44603" stroke="white"/>
<rect x="306.643" y="3.03857" width="20.8381" height="9.9229" rx="4.96145" fill="white"/>
<path opacity="0.35" d="M330.457 6.01562C330.457 6.01562 332.442 6.41254 332.442 8.0002C332.442 9.58787 330.457 9.98478 330.457 9.98478V6.01562Z" fill="white"/>
<path fill-rule="evenodd" clip-rule="evenodd" d="M288.87 10.3153C290.148 10.3153 291.306 10.8336 292.144 11.6716L288.87 14.946L285.595 11.6716C286.433 10.8336 287.591 10.3153 288.87 10.3153ZM288.87 5.68465C291.427 5.68465 293.743 6.72126 295.419 8.39724L293.454 10.3619C292.281 9.18869 290.66 8.46306 288.87 8.46306C287.08 8.46306 285.459 9.18869 284.286 10.3619L282.321 8.39724C283.997 6.72126 286.312 5.68465 288.87 5.68465ZM288.526 1.05812L288.87 1.05396L289.29 1.06019L289.659 1.07599L289.976 1.0974L290.381 1.13522L290.717 1.17578L291.082 1.22921L291.46 1.29503L291.834 1.37101L292.16 1.44584L292.539 1.54386L292.928 1.65626L293.195 1.74058L293.487 1.83969L293.801 1.95466L294.149 2.09233L294.492 2.2388L294.81 2.38448L295.119 2.53577L295.424 2.69429L295.72 2.85765L296.004 3.02326L296.308 3.21134L296.608 3.407L296.886 3.59901L297.139 3.78198L297.473 4.03779L297.72 4.23738L297.967 4.44708L298.245 4.69432L298.537 4.96913L298.694 5.12377L296.728 7.08748C294.717 5.0763 291.938 3.83237 288.87 3.83237C285.801 3.83237 283.023 5.07611 281.011 7.08701L279.046 5.12284L279.069 5.10062C279.151 5.01821 279.235 4.93684 279.32 4.85652C279.488 4.69789 279.659 4.54338 279.834 4.39316L280.028 4.23038L280.266 4.03803L280.478 3.87363L280.713 3.69963L280.951 3.53039L281.088 3.43595L281.471 3.18568L281.759 3.00936L282.019 2.85761L282.403 2.6478L282.71 2.49048L283.023 2.34043L283.315 2.20877L283.658 2.06469L284.005 1.92966L284.312 1.81878L284.709 1.68779L284.982 1.60525L285.339 1.50644L285.693 1.41885L286 1.35064L286.354 1.28104L286.712 1.22047L287.057 1.17112L287.415 1.12918L287.781 1.09595L288.185 1.07051L288.526 1.05812Z" fill="white"/>
<rect x="251.761" y="9.38916" width="3.70455" height="4.63068" rx="1.85227" fill="white"/>
<rect x="257.318" y="7.53687" width="3.70455" height="6.48296" rx="1.85227" fill="white"/>
<rect x="262.875" y="4.75842" width="3.70455" height="9.26137" rx="1.85227" fill="white"/>
<rect x="268.432" y="1.9801" width="3.70455" height="12.0398" rx="1.85227" fill="white"/>
<path d="M4.90514 0.997925C2.04076 0.997925 0 2.97608 0 5.68449V5.70298C0 8.23575 1.77537 10.103 4.3103 10.103C6.12227 10.103 7.27535 9.16937 7.76037 8.11559H7.9434C7.9434 8.21727 7.93425 8.31895 7.93425 8.42063C7.83358 10.9719 6.9459 13.0425 4.85023 13.0425C3.68801 13.0425 2.87353 12.4324 2.52578 11.4988L2.49833 11.4063H0.173876L0.192179 11.508C0.613143 13.5509 2.42512 15.0022 4.85023 15.0022C8.17218 15.0022 10.1763 12.34 10.1763 7.84752V7.82903C10.1763 3.0223 7.72377 0.997925 4.90514 0.997925ZM4.89599 8.27273C3.39516 8.27273 2.30615 7.16348 2.30615 5.61978V5.60129C2.30615 4.11306 3.46837 2.9391 4.92344 2.9391C6.38766 2.9391 7.53159 4.13154 7.53159 5.65676V5.67524C7.53159 7.18197 6.38766 8.27273 4.89599 8.27273Z" fill="white"/>
<path d="M14.3311 6.02651C15.173 6.02651 15.7861 5.37945 15.7861 4.566C15.7861 3.74331 15.173 3.10549 14.3311 3.10549C13.4983 3.10549 12.876 3.74331 12.876 4.566C12.876 5.37945 13.4983 6.02651 14.3311 6.02651ZM14.3311 12.8853C15.173 12.8853 15.7861 12.2475 15.7861 11.4248C15.7861 10.6021 15.173 9.96433 14.3311 9.96433C13.4983 9.96433 12.876 10.6021 12.876 11.4248C12.876 12.2475 13.4983 12.8853 14.3311 12.8853Z" fill="white"/>
<path d="M24.8918 14.6694H27.1521V12.1089H28.9275V10.14H27.1521V1.3307H23.8119C22.0182 4.08533 20.1422 7.15424 18.4309 10.1584V12.1089H24.8918V14.6694ZM20.6272 10.1954V10.0568C21.9084 7.79206 23.4367 5.32398 24.7911 3.2349H24.9284V10.1954H20.6272Z" fill="white"/>
<path d="M34.4 14.6694H36.7611V1.3307H34.4092L30.9591 3.78028V6.02651L34.2445 3.6786H34.4V14.6694Z" fill="white"/>
</svg>
