<svg width="30" height="33" viewBox="0 0 30 33" fill="none" xmlns="http://www.w3.org/2000/svg">
<path d="M10 14.85H6.66667V18.15H10V14.85ZM16.6667 14.85H13.3333V18.15H16.6667V14.85ZM23.3333 14.85H20V18.15H23.3333V14.85ZM26.6667 3.3H25V0H21.6667V3.3H8.33333V0H5V3.3H3.33333C1.48333 3.3 0.0166667 4.785 0.0166667 6.6L0 29.7C0 30.5752 0.351189 31.4146 0.976311 32.0335C1.60143 32.6523 2.44928 33 3.33333 33H26.6667C28.5 33 30 31.515 30 29.7V6.6C30 4.785 28.5 3.3 26.6667 3.3ZM26.6667 29.7H3.33333V11.55H26.6667V29.7Z" fill="black"/>
</svg>
