<svg width="36" height="33" viewBox="0 0 36 33" fill="none" xmlns="http://www.w3.org/2000/svg">
<path d="M35.2549 16.2296L18.8982 0.361399C18.7804 0.246836 18.6405 0.155947 18.4865 0.0939336C18.3325 0.0319202 18.1675 0 18.0007 0C17.834 0 17.6689 0.0319202 17.5149 0.0939336C17.3609 0.155947 17.2211 0.246836 17.1033 0.361399L0.746556 16.2296C0.270031 16.6923 0 17.3207 0 17.9761C0 19.337 1.13969 20.4434 2.54147 20.4434H4.2649V31.7663C4.2649 32.4487 4.83276 33 5.53564 33H15.4593V24.3642H19.9068V33H30.4659C31.1687 33 31.7366 32.4487 31.7366 31.7663V20.4434H33.46C34.1351 20.4434 34.7824 20.1851 35.2589 19.7186C36.2477 18.7548 36.2477 17.1934 35.2549 16.2296V16.2296Z" fill="black"/>
</svg>
