<svg width="26" height="35" viewBox="0 0 26 35" fill="none" xmlns="http://www.w3.org/2000/svg">
<path d="M25.6095 9.12533L16.5097 0.375436C16.3953 0.253302 16.2547 0.156515 16.0976 0.0917692C15.9405 0.0270229 15.7706 -0.00413815 15.5997 0.000440498H2.59995C1.91104 0.00241888 1.25092 0.266443 0.763782 0.73485C0.276641 1.20326 0.00205751 1.83798 0 2.50041V32.5C0.00205751 33.1625 0.276641 33.7972 0.763782 34.2656C1.25092 34.734 1.91104 34.998 2.59995 35H23.3996C24.0885 34.998 24.7486 34.734 25.2358 34.2656C25.7229 33.7972 25.9975 33.1625 25.9995 32.5V10.0003C26.0043 9.83601 25.9719 9.67268 25.9046 9.5216C25.8372 9.37053 25.7366 9.23532 25.6095 9.12533V9.12533ZM15.5997 3.0004L22.8796 10.0003H15.5997V3.0004ZM23.3996 32.5H2.59995V2.50041H12.9998V10.0003C13.0018 10.6627 13.2764 11.2975 13.7636 11.7659C14.2507 12.2343 14.9108 12.4983 15.5997 12.5003H23.3996V32.5Z" fill="black"/>
</svg>
